<svg xmlns="http://www.w3.org/2000/svg" width="64" height="64" viewBox="0 0 64 64" fill="none" role="img" aria-label="AI Video Studio favicon">
  <defs>
    <linearGradient id="gold" x1="12" y1="10" x2="52" y2="54" gradientUnits="userSpaceOnUse">
      <stop offset="0" stop-color="#FFE27A"/>
      <stop offset="0.55" stop-color="#F7C63A"/>
      <stop offset="1" stop-color="#EAA414"/>
    </linearGradient>
    <linearGradient id="goldSoft" x1="0" y1="0" x2="1" y2="1">
      <stop offset="0" stop-color="#FFE9A6"/>
      <stop offset="1" stop-color="#F0B11A"/>
    </linearGradient>
  </defs>

  <!-- dark rounded background -->
  <rect x="1.5" y="1.5" width="61" height="61" rx="13.5" fill="#04070F"/>

  <!-- play icon -->
  <path d="M20 18.5C20 16.7 22.02 15.63 23.52 16.65L42.75 29.73C44.08 30.63 44.08 32.59 42.75 33.49L23.52 46.57C22.02 47.59 20 46.52 20 44.7V18.5Z" fill="url(#gold)"/>

  <!-- sparkle -->
  <path d="M49.4 9.8C49.86 13.61 50.39 14.14 54.2 14.6C50.39 15.06 49.86 15.59 49.4 19.4C48.94 15.59 48.41 15.06 44.6 14.6C48.41 14.14 48.94 13.61 49.4 9.8Z" fill="url(#goldSoft)"/>

  <!-- flowing connection line -->
  <path d="M16 49.2C21.5 50.1 27.7 50.55 33.4 48.7C37.1 47.5 39.8 44.8 43.6 43.8C46.2 43.12 48.8 43.2 51 43.2" stroke="url(#gold)" stroke-width="3.6" stroke-linecap="round" stroke-linejoin="round"/>
  <circle cx="14.3" cy="49.0" r="4.3" fill="url(#goldSoft)"/>
  <circle cx="52.2" cy="43.2" r="4.3" fill="url(#goldSoft)"/>
</svg>
